<?xml version="1.0" encoding="UTF-8"?> <svg xmlns="http://www.w3.org/2000/svg" width="136" height="93" viewBox="0 0 136 93" fill="none"> <g clip-path="url(#clip0)"> <path d="M135.1 1.60005C134.7 5.06639e-05 134.3 -0.299949 132.8 0.300051C132.1 0.600051 131.4 1.00005 130.8 1.40005C128.2 3.00005 125.7 4.50005 123.1 6.10005C119.2 8.50005 114.9 10.1001 111 12.3001C102.4 17.2001 93.3 21.1001 84.1 24.5001C82.6 25.0001 81.1 25.3001 79.7 25.9001C77.9 26.6001 77.7 27.4001 78.8 28.9001C80 30.5001 81.5 32 83.4 32.7001C86.8 34 87.6 36.6 87.6 39.8C87.6 40.2001 87.6 40.7 87.6 41.1C87.8 44.8 87.9 48.4 88.3 52.1C88.6 55.5 90.3 56.2001 93.2 54.5C96.2 52.8 98.8 50.6 101.2 48C103.3 49.1 103.8 50.9001 104.7 52.4001C106.2 54.7001 107.8 54.7001 109.3 52.4001C110.5 50.5 111.6 48.6 112.9 46.8C115.9 42.5 119.1 38.4001 121.4 33.7001C126.2 24.2001 131.5 14.9001 134.6 4.60005C135 3.70005 135.4 2.70005 135.1 1.60005ZM126.4 6.40005C126.5 6.30005 126.7 6.10005 126.8 6.00005L126.9 6.10005C126.7 6.60005 126.4 7.00005 126.2 7.50005V7.40005C126.4 7.00005 126.6 6.60005 126.8 6.20005C126.7 6.20005 126.5 6.30005 126.4 6.40005ZM82.4 30.0001C81.8 29.6001 81.2 29.1001 80.9 28.4001C81 27.4001 81.8 27.3001 82.4 27.2001C88.1 25.9001 93.2 23.1001 98.5 20.9001C107 17.3001 114.8 12.5001 123 8.20005C123.6 7.90005 124.1 7.50005 124.8 7.50005C125.2 6.90005 125.7 7.20005 126.1 7.30005H126.2V7.40005C126.2 7.40005 126.1 7.40005 126.1 7.30005C125.7 7.40005 125.3 7.50005 124.9 7.60005C124.2 8.80005 123.1 9.50005 122 10.3001C112.4 16.7001 103.1 23.5001 93.7 30.2001C87.8 34.3001 88.8 34.3001 82.4 30.0001ZM92.6 52.4001C94 49.2001 95.3 46.6 97.2 44.3C98.5 44.9 99.1 45.7001 99.6 46.9001C98.2 49.5 95.8 50.9001 92.6 52.4001ZM106.7 52.2001C105.5 50.2001 104.7 48.3 103.2 47C101.8 45.8 100 44.9001 99.4 43C111.1 33 121.9 22.3 130.5 9.40005C130.5 14.7001 117.4 38.1001 106.7 52.2001ZM130.5 7.10005C123.1 16.7001 115.6 26.2001 106.4 34.2001C103.8 36.5 101.4 38.9 98.5 40.8C96.5 42.1 95.4 44.2001 94.1 46.2001C93 47.9001 92.1 49.7 90.4 51.6C89.4 47.9 90 44.5 89.3 41.2001C89.2 40.8 89.4 40.3001 89.2 39.9001C87.7 36.4001 89.6 34.9001 92.4 33.2001C97.1 30.3001 101.6 27.0001 106 23.6001C113.9 17.7001 122.2 12.3001 129.9 6.10005C130.1 5.90005 130.4 5.60005 130.8 5.90005C131 6.40005 130.7 6.70005 130.5 7.10005Z" fill="#49C8CE"></path> <path d="M56.2 81.9C50.4 83.4 44.5 84.1 38.4 82.6C34.5 81.6 30.9 79.9 27.2 78.5C22.5 76.7 17.8 75.9 12.8 76.4C7.50001 76.9 3.30001 79.3 0.800012 84.2C-0.299988 86.4 -0.399988 88.7 0.900012 90.9C1.90001 92.6 4.60001 93.3 6.40001 92.4C7.80001 91.7 9.20001 88.6 8.60001 87.1C8.20001 86.2 7.50001 86.2 6.70001 86.6C6.50001 86.7 6.40001 86.9 6.30001 87.1C6.80001 87.3 7.30001 87.5 7.70001 87.7C8.00001 88.4 7.60001 89.1 7.40001 89.7C7.00001 91.1 6.10001 91.9 4.50001 91.9C2.90001 91.9 2.00001 91.1 1.50001 89.7C0.900012 87.9 1.00001 86.2 1.90001 84.5C3.40001 81.7 5.50001 79.6 8.40001 78.6C14 76.7 19.5 77 25 79C28.4 80.3 31.9 81.4 35.3 82.7C39.9 84.5 44.8 84.4 49.7 83.9C57.4 83.1 63.9 79.8 70 75.4C70.5 75 71 74.7 71.1 74C70.7 74.2 70.3 74.3 70 74.5C65.9 77.6 61.4 80.5 56.2 81.9Z" fill="#49C8CE"></path> <path d="M68 68.8001C61.6 73.3001 54.6 75.8001 46.7 74.4001C42.4 73.6001 38.4 71.9001 35.7 68.2001C34.3 66.3001 33.7 64.2001 35.1 62.0001C36.4 59.8001 38.5 58.9001 41 59.1001C43.2 59.3001 43.9 60.4001 43.1 62.4001C42.9 62.8001 42.2 63.1001 42.5 63.7001C44.1 62.1001 44.5 61.5001 44.2 60.4001C43.9 59.2001 43.1 58.5001 41.9 58.2001C39.3 57.5001 35.8 58.8001 34.2 61.1001C32.6 63.5001 32.8 65.9001 34.3 68.3001C36.9 72.5001 41.1 74.4001 45.6 75.3001C52.7 76.7001 59.5 75.4001 65.7 71.4001C71.8 67.5001 77.5 63.1001 83.8 59.5001C84.4 59.1001 85.1 58.8001 85.4 58.0001C84.7 57.9001 84.2 58.4001 83.7 58.7001C78.2 61.6001 73.1 65.2001 68 68.8001Z" fill="#49C8CE"></path> </g> <defs> <clipPath id="clip0"> <rect width="135.2" height="92.8" fill="white"></rect> </clipPath> </defs> </svg> 