<?xml version="1.0" encoding="UTF-8"?> <svg xmlns="http://www.w3.org/2000/svg" width="480" height="330" viewBox="0 0 480 330" fill="none"> <path d="M234.429 112.421C230.201 111.986 226.718 113.326 223.862 116.527C222.492 118.085 221.171 118.03 219.437 117.35C216.25 116.154 212.897 115.358 209.628 116.634C203.305 119.123 196.965 121.717 191.568 126.127C190.165 127.245 188.778 127.61 186.995 127.893C178.326 129.034 170.599 131.992 165.715 140.295C165.006 141.556 164.098 142.127 162.76 142.177C159.128 142.513 155.859 143.789 152.639 145.401C149.42 147.012 146.35 148.978 143.56 151.11C141.711 152.462 139.845 153.269 137.468 153.43C134.595 153.49 131.672 153.863 128.816 154.467C121.732 155.934 115.095 158.467 110.26 164.507C108.989 166.085 107.387 166.514 105.604 166.797C97.1666 167.77 90.6296 172.27 85.4641 179.108C84.1768 180.792 82.6582 181.995 80.8752 182.927C78.2008 184.326 75.3776 185.369 73.0997 187.498C71.2015 189.164 68.9561 189.785 66.2975 189.78C59.2467 189.739 53.5182 192.999 48.6162 198.16C46.5365 200.33 45.7287 203.519 43.3186 205.188C40.925 206.752 38.1844 207.921 35.6255 209.235C35.4109 209.299 35.2788 209.488 35.0642 209.552C28.2296 213.343 23.0803 219.426 17.2536 224.614C11.8891 229.464 7.05317 234.854 2.20082 240.35C2.20082 240.35 2.20082 240.35 2.29991 240.371C4.59503 240.084 5.35366 237.86 6.78969 236.532C13.8707 229.87 20.9683 223.104 28.0328 216.548C32.572 212.395 37.7557 209.347 43.2368 207.01C47.2186 212.264 51.1161 213.497 55.9037 211.017C56.7952 210.551 57.7031 209.98 57.7852 208.807C57.7846 207.508 56.8596 206.886 55.9017 206.473C54.6466 205.999 53.3914 205.525 52.0207 205.135C50.4518 204.705 48.7345 204.568 47.0171 204.432C49.5238 196.94 60.4524 190.528 67.2398 192.246C67.2911 196.476 68.1835 197.958 71.1395 198.673C73.5011 199.266 75.1355 198.628 75.9438 196.738C76.9336 194.344 76.1898 192.569 73.1173 189.99C74.9823 187.885 80.5459 185.023 83.4849 184.545C84.0138 185.735 84.4272 187.011 85.0881 188.012C86.5587 190.37 88.5404 190.776 90.9176 189.317C92.9481 188.111 93.096 186.518 91.7739 183.866C90.8319 182.05 89.2628 180.97 87.5119 179.745C92.8097 173.367 98.8846 169.204 107.025 168.82C107.126 172.087 108.547 174.11 110.644 175.73C112.28 177.04 113.98 177.281 115.598 176.098C117.315 174.936 119.048 173.669 118.816 171.241C118.65 169.043 117.229 167.669 115.214 166.823C114.257 166.41 112.985 166.69 112.275 165.353C115.327 158.947 132.977 154.023 138.526 155.811C138.443 156.336 138.344 156.964 138.262 157.489C137.372 161.201 139.008 163.16 142.673 162.614C143.614 162.483 144.687 162.162 145.579 161.696C147.808 160.53 148.269 158.245 146.567 156.056C145.791 155.139 144.899 154.307 143.841 153.224C150.114 148.453 156.354 144.54 163.917 143.929C164.858 145.096 165.206 146.141 166.015 146.848C167.452 148.117 169.038 148.443 170.755 147.93C173.033 147.099 173.264 145.632 171.628 143.673C170.604 142.38 168.903 142.139 167.565 140.891C172.169 133.721 178.806 131.189 186.186 129.783C186.814 130.993 186.22 131.521 186.006 132.234C184.901 135.361 185.578 136.907 188.452 138.146C190.467 138.993 192.548 139.42 194.694 139.428C198.872 139.528 200.456 136.607 198.423 132.62C197.729 131.179 196.655 130.201 195.367 129.287C194.624 128.81 193.616 128.711 193.17 127.646C193.418 127.372 193.698 126.889 194.045 126.635C199.261 122.729 205.089 120.139 211.115 118.238C213.922 117.299 216.779 117.994 219.488 119.632C218.811 121.333 217.805 122.533 216.913 123.648C215.89 124.953 215.148 126.423 216.106 128.135C217.065 129.847 218.469 130.676 220.302 130.728C223.456 130.834 225.568 129.104 227.202 126.518C229.397 122.965 229.165 121.836 225.663 119.385C225.383 119.22 225.234 118.864 224.887 118.469C226.917 115.964 229.145 114.149 232.514 114.192C234.974 114.156 237.501 114.35 239.812 113.959C245.079 112.985 249.77 115.03 254.46 117.075C254.741 117.24 254.89 117.596 255.138 117.971C254.329 119.212 253.636 120.368 252.943 121.524C252.266 122.575 251.672 123.752 251.475 125.009C250.981 127.505 251.79 128.861 254.135 129.559C256.282 130.216 258.082 129.828 259.6 127.976C261.366 125.85 261.514 123.608 260.687 121.058C260.257 119.888 259.068 118.994 259.166 117.067C266.694 113.419 274.604 112.554 282.894 115.122C283.143 117.445 283.028 119.477 283.64 121.442C284.334 123.533 285.87 124.822 287.885 125.019C289.801 125.196 291.749 123.865 292.672 121.89C293.481 120 293.084 118.621 291.333 116.746C290.275 115.664 289.086 114.77 287.616 114.36C286.939 114.113 286.014 114.14 285.568 113.074C285.584 111.671 286.459 110.66 287.433 109.67C289.512 107.5 292.204 106.646 294.994 106.462C300.36 106.157 305.711 106.606 310.995 108.124C313.341 108.822 315.636 109.834 317.239 112.002C317.371 113.112 316.579 113.598 316.348 114.416C315.821 116.472 316.812 118.623 318.646 119.324C319.703 119.758 320.892 120.002 321.766 118.991C322.608 118.19 322.376 117.061 322.244 115.951C322.128 114.737 321.137 113.885 321.153 112.481C321.565 111.809 322.242 111.407 322.902 111.109C326.386 109.12 330.332 108.74 333.981 107.649C335.269 107.265 336.293 107.908 337.218 109.179C336.492 110.545 335.584 111.765 335.056 113.172C334.001 115.985 334.992 118.136 337.717 119.02C339.369 119.575 340.987 119.691 342.754 119.513C346.998 119.194 347.195 117.287 346.153 113.503C345.756 112.123 344.798 111.06 343.724 110.083C343.08 109.626 342.188 109.443 342.138 108.459C347.899 103.041 360.251 103.846 367.354 110.065C366.644 111.326 365.257 111.69 364.3 112.576C363.243 113.441 362.369 114.451 361.94 115.878C360.868 120.094 362.554 123.037 366.831 124.456C369.936 125.527 371.851 124.405 372.378 121.051C372.823 118.87 372.426 116.841 371.831 114.771C371.582 113.746 370.905 112.85 371.301 111.633C372.225 110.957 373.348 110.971 374.471 110.985C377.708 111.217 380.911 111.658 383.983 112.938C384.842 113.331 385.783 113.849 386.642 112.943C386.096 111.857 385.254 111.36 384.362 111.176C380.349 110.028 376.352 108.775 372.092 109.198C371.151 109.33 370.045 109.86 369.17 108.923C367.501 107.174 365.371 106.412 363.29 105.335C355.494 101.571 347.915 101.638 340.717 106.436C339.578 107.176 338.505 107.496 337.431 106.518C335.713 105.084 333.93 105.367 332.015 105.839C327.524 107.081 322.984 107.988 319.055 110.86C316.907 108.905 314.793 107.389 312.448 106.691C306.106 104.74 299.699 103.857 293.21 104.797C289.033 105.346 285.549 107.336 283.669 111.494C283.174 112.691 282.414 112.968 281.225 112.723C280.532 112.581 279.937 112.459 279.244 112.317C271.845 111.231 264.712 111.714 258.191 115.46C257.052 116.2 256.193 115.807 255.054 115.249C249.703 112.852 244.286 110.874 238.457 112.166C237.17 112.551 235.832 112.601 234.429 112.421ZM56.4474 208.208C54.4504 210.503 52.2211 210.37 50.1074 210.152C48.2909 209.996 46.8209 208.936 45.796 206.346C49.6927 205.631 52.9295 206.512 56.4474 208.208ZM74.6058 195.489C74.2762 196.937 73.0545 197.551 71.403 196.996C69.7515 196.44 68.8592 194.959 69.2879 193.532C69.7002 192.21 70.8889 191.805 72.6395 192.381C74.3074 192.831 75.051 193.958 74.6058 195.489ZM87.7938 182.508C88.9663 182.857 90.6019 184.816 90.8006 186.155C90.8671 187.034 90.4875 187.497 89.8271 187.795C89.0347 188.281 88.1926 188.433 87.3997 187.621C86.425 186.663 86.0117 185.388 85.912 184.069C85.6804 182.94 86.7039 182.284 87.7938 182.508ZM113.019 168.428C113.613 168.55 114.109 168.651 114.489 168.838C115.76 169.207 116.784 169.85 117.066 171.314C117.331 172.883 116.093 173.603 115.267 174.299C114.211 175.164 113.088 175.15 111.899 174.257C111.535 173.966 111.172 173.675 110.924 173.299C109.982 172.132 108.842 170.924 109.717 169.264C110.393 167.564 111.896 168.413 113.019 168.428ZM145.611 158.889C145.76 159.893 144.885 160.255 144.125 160.532C142.953 160.832 141.5 161.616 140.658 160.469C139.385 158.801 140.821 157.473 141.696 155.813C143.793 156.136 145.329 156.775 145.611 158.889ZM170.209 145.545C168.294 146.667 168.294 146.667 167.137 144.265C168.441 143.776 169.35 144.503 170.209 145.545ZM197.087 134.617C197.731 136.373 197.17 137.339 195.404 137.518C195.189 137.582 194.991 137.541 194.693 137.48C193.802 137.297 192.91 137.114 192.018 136.931C192.018 136.931 192.018 136.931 192.002 137.036C191.407 136.914 190.912 136.812 190.317 136.69C189.145 136.341 187.725 136.266 187.691 134.528C187.608 133.104 189.291 130.853 190.463 130.552C193.006 129.993 196.26 132.067 197.087 134.617ZM226.193 122.524C226.54 122.92 226.573 123.359 226.524 123.674C225.997 126.379 222.794 129.184 220.466 129.03C219.343 129.016 218.484 128.623 217.939 127.538C217.377 126.557 217.905 125.799 218.45 124.937C219.39 123.508 220.513 122.223 222.081 121.355C223.088 120.804 225.433 121.502 226.193 122.524ZM285.157 116.344C287.237 116.122 288.625 117.056 289.864 118.284C290.657 119.096 291.235 119.972 290.757 121.064C290.245 122.366 289.304 123.146 287.983 123.092C286.761 123.057 285.82 122.539 285.407 121.264C284.828 119.739 284.464 118.149 285.157 116.344ZM368.61 112.487C369.816 114.574 370.428 116.539 370.495 118.717C370.545 120.35 370.678 122.108 369.01 122.956C367.789 123.571 364.568 121.936 363.758 120.579C362.717 118.743 362.914 116.186 364.367 114.753C365.555 113.699 366.744 112.645 368.61 112.487ZM336.724 113.623C338.193 110.137 341.115 109.763 343.395 112.828C344.155 113.85 344.304 114.205 344.454 117.157C342.39 117.924 340.359 117.831 338.394 117.319C336.544 116.723 336.015 115.533 336.724 113.623ZM318.99 114.526C319.915 115.149 320.279 116.089 320.114 117.137C319.289 117.833 318.645 117.376 318.248 116.646C317.587 115.644 317.901 114.951 318.99 114.526ZM256.922 119.636C259.697 122.802 259.83 125.21 257.784 127.17C256.942 127.971 256.083 128.228 254.993 128.004C253.408 127.678 252.813 126.907 253.374 125.291C254.017 123.151 255.321 121.363 256.922 119.636Z" fill="white" fill-opacity="0.1"></path> <path d="M392.767 100.376C393.462 100.519 394.372 99.9461 394.951 100.826C395.548 102.904 394.423 104.193 393.381 105.608C390.603 109.599 391.018 112.183 394.593 115.526C396.381 117.197 398.516 117.962 400.7 118.411C403.976 119.085 407.335 119.233 410.677 119.486C413.722 119.678 416.7 120.29 419.811 120.713C419.431 122.482 418.124 122.321 417.396 123.041C416.669 123.76 416.437 124.581 417 125.566C417.48 126.425 418.159 126.674 419.019 126.416C419.979 126.179 420.591 125.544 420.756 124.492C420.904 122.893 421.863 122.004 422.74 120.99C423.252 120.335 424.079 120.288 424.659 121.167C424.643 121.924 423.997 122.117 423.617 122.582C422.989 123.322 423.072 124.1 423.784 124.789C424.413 125.353 425.207 125.516 426.001 125.028C426.679 124.624 426.695 123.867 426.596 123.195C426.446 121.535 427.174 120.816 428.812 120.827C429.937 120.841 431.029 120.414 432.435 121.246C432.585 122.255 432.75 123.158 433.016 124.081C434.872 131.85 438.531 138.577 444.143 143.968C448.248 147.854 452.532 146.671 454.499 141.319C456.449 136.071 455.537 130.778 454.525 125.464C454.227 124.1 453.515 122.758 453.961 121.22C455.814 121.167 457.75 121.24 459.619 121.081C463.143 120.828 466.783 120.491 469.943 118.642C475.914 115.2 476.126 107.313 470.201 103.27C467.238 101.249 464.111 99.6274 460.586 99.2283C456.748 98.8732 452.942 98.3075 449.203 98.6246C446.605 98.8507 445.447 97.7433 444.155 95.5223C440.794 89.5081 436.854 83.9179 432.086 79.0266C430.762 77.6679 429.421 76.4144 427.552 75.9212C423.332 74.7273 419.941 76.7454 419.033 81.2296C418.306 84.5563 418.92 87.8327 420.278 90.9364C421.421 93.4527 422.762 96.0098 424.302 99.2596C417.088 98.8618 410.454 99.9955 403.538 100.311C403.289 98.6303 402.842 97.5606 403.553 96.2947C404 96.0607 404.446 95.8267 404.992 95.6131C406.795 94.5719 407.241 93.686 406.629 92.3651C405.85 90.7928 404.593 90.9686 403.468 91.6063C402.343 92.2439 401.599 91.7648 400.672 91.1396C398.04 89.6207 396.634 90.0918 395.461 93.0006C394.932 94.4126 394.254 95.4681 392.931 96.0649C392.484 96.2989 392.004 96.7434 391.641 97.103C390.4 98.4773 390.897 99.8831 392.767 100.376ZM404.478 93.0089L404.577 93.0293L404.478 93.0089C404.478 93.0089 404.462 93.1142 404.478 93.0089C404.412 93.4299 404.313 93.4094 404.246 93.1785C404.263 93.0733 404.379 92.9885 404.478 93.0089ZM431.64 117.824C426.643 117.665 421.597 117.822 416.534 117.432C412.596 117.056 408.74 116.806 404.802 116.431C401.477 116.072 398.035 115.799 395.37 113.187C395.105 112.915 394.84 112.643 394.675 112.392C394.592 112.266 394.642 111.951 394.575 111.72C395.684 111.187 396.809 111.853 397.769 112.268C406.308 115.328 415.11 116.053 423.929 116.02C426.808 115.961 429.753 116.132 432.731 116.093C433.046 117.352 432.765 117.838 431.64 117.824ZM444.902 141.083C440.417 136.358 437.089 130.785 435.117 124.405C434.719 123.02 434.537 121.57 434.652 120.181C434.899 117.299 435.891 116.2 439.101 115.339C442.083 124.426 445.081 133.407 448.146 142.619C446.459 142.924 445.697 141.898 444.902 141.083ZM452.974 135.356C452.876 137.943 452.281 140.428 450.628 142.478C449.386 140.593 441.501 117.68 441.285 115.137C447.34 115.079 449.889 117.124 451.314 123.066C452.127 127.035 453.121 131.15 452.974 135.356ZM460.942 118.529C454.87 119.344 453.877 119.139 452.139 117.152C456.772 116.367 461.305 115.562 466.152 114.712C465.641 118.626 463.043 118.201 460.942 118.529ZM468.634 115.875C468.749 112.531 469.343 109.394 468.878 105.822C473.033 109.393 472.919 113.388 468.634 115.875ZM429.588 79.9249C431.707 82.0988 433.942 84.1879 435.697 86.7215C438.312 90.3011 441.044 93.796 443.345 98.0715C441.162 98.9258 439.193 98.4121 437.24 98.445C431.78 98.6254 431.698 98.4997 429.263 93.1106C427.657 89.63 426.034 86.2545 424.427 82.7738C423.815 81.4529 423.185 80.2372 423.119 78.7026C425.567 77.4682 427.735 78.0227 429.588 79.9249ZM421.816 88.3197C421.037 86.0956 420.689 83.7428 421.349 81.4889C421.565 81.4245 421.862 81.4858 422.077 81.4214C424.595 86.9361 427.013 92.4304 429.629 97.9656C427.826 99.0068 426.767 98.5717 425.74 96.6225C424.416 93.9601 422.793 91.2365 421.816 88.3197ZM396.786 97.6185C396.571 96.3792 396.885 95.0316 397.281 93.8096C397.479 93.1986 397.76 92.7133 398.389 92.6254C399.117 92.5579 399.68 92.8909 400.077 93.6244C400.789 94.9658 400.988 96.3103 401.072 97.7396C401.322 102.028 402.298 102.989 406.368 102.523C419.72 101.033 433.138 101.077 446.507 100.786C451.139 100.652 455.822 101.507 460.571 101.941C461.282 101.979 461.862 102.206 462.557 102.349C466.991 103.479 468.912 107.567 467.293 112.014C466.946 112.92 466.383 113.239 465.539 113.391C460.907 114.176 456.291 114.856 451.625 115.2C450.798 115.247 450.12 114.999 449.358 114.625C444.774 111.835 440.075 111.086 435.311 114.016C434.517 114.505 433.591 114.532 432.681 114.453C425.45 114.161 418.17 114.184 410.89 113.555C405.33 113.063 400.051 110.782 393.697 108.823C397.451 105.142 397.499 101.567 396.786 97.6185Z" fill="white" fill-opacity="0.1"></path> <path d="M459.615 110.549C461.904 111.02 464.192 109.53 464.522 107.419C464.837 105.413 463.393 103.481 461.403 103.071C459.197 102.726 457.456 104.002 456.993 106.304C456.546 108.501 457.624 110.139 459.615 110.549ZM460.79 105.016C462.167 105.408 463.062 106.246 462.897 107.302C462.732 108.358 461.372 109.167 459.979 108.881C458.785 108.635 458.27 107.984 458.485 106.612C458.767 105.471 459.413 104.623 460.79 105.016Z" fill="white" fill-opacity="0.1"></path> <path d="M447.89 109.602C449.582 109.95 451.239 108.548 451.421 106.733C451.586 105.024 450.507 103.386 448.915 103.058C447.108 102.795 445.151 104.135 444.887 105.824C444.639 107.407 446.198 109.254 447.89 109.602ZM448.518 104.937C449.414 105.122 449.828 105.752 449.68 106.702C449.431 107.631 448.768 107.931 447.872 107.746C447.209 107.392 446.562 106.932 446.827 105.897C446.959 105.052 447.622 104.753 448.518 104.937Z" fill="white" fill-opacity="0.1"></path> <path d="M437.305 108.418C439.196 108.807 440.822 107.616 441.103 105.82C441.235 104.321 440.056 102.661 438.646 102.48C437.236 102.299 435.428 103.998 435.263 105.708C435.031 107.187 435.811 108.11 437.305 108.418ZM438.614 104.654C439.194 104.882 439.41 105.472 439.112 106.065C438.548 107.039 437.768 106.769 436.723 106.227C437.121 105 437.552 104.217 438.614 104.654Z" fill="white" fill-opacity="0.1"></path> <path d="M427.681 108.863C429.373 109.211 430.749 108.296 431.129 106.522C431.477 104.959 430.813 103.951 429.437 103.558C427.762 103.104 425.955 104.149 425.574 105.923C425.243 107.38 425.99 108.514 427.681 108.863ZM428.442 105.315C428.84 105.397 429.321 105.605 429.222 106.238C429.106 106.977 428.659 107.212 428.045 107.194C427.332 107.156 426.984 106.758 427.1 106.019C427.298 105.406 427.845 105.192 428.442 105.315Z" fill="white" fill-opacity="0.1"></path> <path d="M418.253 109.345C420.043 109.713 421.203 108.863 421.451 107.28C421.715 105.592 420.936 104.669 419.229 104.426C417.621 104.204 416.345 105.14 416.196 106.743C415.981 108.114 416.744 109.143 418.253 109.345ZM418.649 106.159C419.163 106.156 419.544 106.343 419.661 106.911C419.843 107.712 419.114 107.779 418.783 107.929C418.169 107.911 417.804 107.618 417.788 107.07C417.887 106.437 418.235 106.182 418.649 106.159Z" fill="white" fill-opacity="0.1"></path> <path d="M408.053 109.563C409.414 110.061 410.774 109.251 411.122 107.687C411.436 106.335 410.971 105.367 409.81 104.91C408.433 104.517 406.84 105.498 406.526 106.85C406.211 108.203 406.775 109.191 408.053 109.563ZM408.799 106.773C408.981 106.919 409.164 107.066 409.247 107.192C409.114 107.383 408.981 107.574 408.865 107.659C408.766 107.638 408.583 107.492 408.401 107.345C408.633 107.175 408.666 106.964 408.799 106.773Z" fill="white" fill-opacity="0.1"></path> </svg> 