<?xml version="1.0" encoding="UTF-8"?> <svg xmlns="http://www.w3.org/2000/svg" width="507" height="321" viewBox="0 0 507 321" fill="none"> <path d="M261.408 282.766C257.536 284.712 253.817 284.723 250.116 282.762C248.334 281.8 247.098 282.332 245.666 283.601C243.015 285.881 240.085 287.847 236.589 287.84C229.822 287.808 223.007 287.684 216.52 285.515C214.843 284.977 213.415 285.14 211.637 285.524C203.064 287.607 194.821 287.646 187.613 281.643C186.549 280.72 185.511 280.515 184.228 280.955C180.679 281.961 177.184 281.954 173.632 281.615C170.08 281.277 166.558 280.551 163.252 279.568C161.079 278.974 159.06 278.896 156.756 279.61C154.014 280.6 151.127 281.313 148.232 281.786C141.062 282.988 133.983 283.029 127.524 279.129C125.829 278.112 124.178 278.293 122.399 278.676C114.099 280.834 106.504 278.995 99.4839 274.466C97.741 273.357 95.9278 272.782 93.9481 272.557C90.9785 272.22 87.9781 272.269 85.1577 271.102C82.8409 270.232 80.5194 270.467 78.0006 271.438C71.3291 274.042 64.8863 273.071 58.6367 270.018C55.9915 268.741 54.2358 266.047 51.4328 265.36C48.6779 264.765 45.717 264.667 42.8832 264.367C42.6598 264.385 42.4759 264.255 42.2525 264.273C34.5964 263.208 27.8259 259.38 20.6915 256.639C14.1002 254.046 7.84197 250.753 1.53559 247.369C1.53559 247.369 1.53559 247.369 1.6232 247.314C3.88784 246.747 5.29774 248.555 7.07147 249.278C15.8525 252.944 24.6817 256.702 33.4146 260.275C39.0073 262.516 44.8676 263.486 50.7894 263.682C52.9329 257.311 56.2449 254.737 61.5534 255.319C62.5432 255.432 63.5812 255.636 64.0233 256.706C64.426 257.923 63.7425 258.843 62.9626 259.579C61.9199 260.479 60.8772 261.38 59.6988 262.244C58.3451 263.218 56.7593 263.97 55.1735 264.723C59.8761 270.831 72.2273 272.864 78.1283 268.785C76.8635 264.802 77.2494 263.09 79.8297 261.344C81.8844 259.929 83.632 259.933 84.985 261.41C86.6665 263.293 86.5127 265.227 84.4006 268.761C86.8224 270.055 92.9849 270.713 95.9197 270.092C96.0515 268.784 96.0475 267.439 96.3631 266.26C97.0253 263.516 98.7776 262.414 101.484 262.916C103.784 263.308 104.418 264.747 103.988 267.712C103.659 269.757 102.507 271.34 101.228 273.124C108.23 277.174 115.282 278.865 123.118 276.264C122.199 273.166 122.918 270.754 124.404 268.472C125.547 266.65 127.085 265.805 128.986 266.325C130.974 266.789 133.011 267.346 133.545 269.706C134.07 271.826 133.149 273.63 131.502 275.156C130.722 275.892 129.43 276.092 129.171 277.602C134.054 282.495 152.315 280.689 157.02 276.994C156.779 276.533 156.49 275.98 156.249 275.519C154.253 272.364 155.195 269.933 158.839 269.111C159.772 268.892 160.889 268.802 161.879 268.914C164.354 269.196 165.501 271.17 164.567 273.84C164.116 274.981 163.529 276.086 162.863 277.485C170.291 279.674 177.421 281.07 184.78 278.892C185.31 277.456 185.315 276.35 185.863 275.393C186.831 273.681 188.233 272.8 190.02 272.656C192.438 272.605 193.112 273.896 192.17 276.327C191.6 277.91 190.062 278.755 189.182 280.412C195.772 285.455 202.85 285.414 210.284 284.047C210.503 282.684 209.776 282.406 209.351 281.815C207.333 279.287 207.495 277.592 209.835 275.385C211.482 273.859 213.322 272.702 215.355 271.914C219.284 270.3 221.692 272.461 221.004 276.937C220.793 278.54 220.079 279.846 219.141 281.171C218.584 281.889 217.66 282.348 217.568 283.508C217.888 283.675 218.304 284.026 218.711 284.137C224.869 285.9 231.198 286.207 237.501 285.796C240.453 285.654 242.946 283.964 245.005 281.444C243.836 280.096 242.509 279.338 241.318 278.617C239.943 277.767 238.782 276.659 239.159 274.706C239.537 272.754 240.61 271.466 242.332 270.751C245.289 269.504 247.829 270.356 250.18 272.185C253.364 274.716 253.495 275.859 250.936 279.429C250.721 279.686 250.691 280.073 250.485 280.57C253.187 282.179 255.863 283.068 259.043 281.803C261.387 280.942 263.721 279.841 266.034 279.366C271.33 278.363 275.142 274.741 278.953 271.118C279.168 270.861 279.199 270.474 279.317 270.032C278.165 269.164 277.149 268.332 276.133 267.501C275.166 266.762 274.237 265.876 273.659 264.769C272.416 262.611 272.762 261.045 274.769 259.538C276.6 258.141 278.427 257.85 280.441 259.033C282.775 260.383 283.611 262.43 283.62 265.12C283.575 266.373 282.725 267.643 283.417 269.414C291.686 270.093 299.453 268.026 306.515 262.605C306.029 260.337 305.289 258.475 305.259 256.411C305.269 254.199 306.325 252.433 308.173 251.515C309.934 250.652 312.194 251.191 313.683 252.705C315.036 254.182 315.088 255.619 314.01 258.013C313.344 259.412 312.494 260.682 311.228 261.6C310.663 262.078 309.778 262.39 309.686 263.551C310.136 264.86 311.279 265.489 312.51 266.062C315.155 267.339 317.972 267.16 320.674 266.318C325.857 264.651 330.789 262.284 335.328 258.94C337.334 257.432 339.196 255.649 340.042 253.034C339.823 251.946 338.921 251.779 338.448 251.096C337.31 249.361 337.582 246.985 339.102 245.661C339.97 244.871 341.021 244.209 342.164 244.838C343.211 245.282 343.342 246.425 343.561 247.513C343.828 248.693 343.153 249.852 343.604 251.161C344.204 251.642 344.97 251.772 345.688 251.81C349.608 252.408 353.467 251.328 357.265 251.023C358.605 250.915 359.377 249.94 359.859 248.411C358.747 247.395 357.507 246.582 356.57 245.456C354.696 243.205 354.968 240.828 357.277 239.008C358.67 237.887 360.168 237.19 361.899 236.714C366.021 235.469 366.8 237.185 366.987 241.11C367.039 242.547 366.461 243.891 365.746 245.198C365.278 245.861 364.489 246.357 364.747 247.297C371.89 250.278 383.35 245.03 388.153 236.619C387.089 235.695 385.661 235.858 384.478 235.377C383.208 234.951 382.065 234.322 381.216 233.141C378.891 229.58 379.575 226.209 383.189 223.323C385.8 221.191 387.964 221.545 389.505 224.497C390.604 226.378 390.857 228.424 390.936 230.58C391.019 231.631 390.655 232.717 391.408 233.714C392.494 234.011 393.554 233.589 394.614 233.167C397.61 231.773 400.51 230.194 403.025 227.877C403.718 227.197 404.449 226.369 405.544 226.906C405.364 228.121 404.72 228.894 403.932 229.39C400.484 231.926 397.084 234.554 392.914 235.707C391.981 235.926 390.768 235.832 390.229 237.028C389.19 239.274 387.407 240.763 385.768 242.529C379.547 248.892 372.341 251.587 364.028 249.709C362.719 249.43 361.602 249.52 360.887 250.827C359.704 252.796 357.926 253.18 355.964 253.434C351.321 253.904 346.734 254.706 342.118 253.443C340.69 256.057 339.156 258.247 337.15 259.754C331.744 263.889 325.943 267.047 319.5 268.527C315.369 269.532 311.449 268.935 308.375 265.722C307.535 264.781 306.729 264.798 305.677 265.459C305.064 265.845 304.538 266.175 303.925 266.561C297.249 270.27 290.337 272.412 282.992 271.274C281.682 270.995 280.99 271.675 280.083 272.613C275.754 276.806 271.233 280.63 265.307 281.539C263.966 281.647 262.683 282.087 261.408 282.766ZM62.9412 257.754C60.3354 256.33 58.2634 257.266 56.3272 258.239C54.6538 259.046 53.589 260.573 53.4218 263.374C57.3378 262.626 60.1328 260.623 62.9412 257.754ZM84.1042 263.066C83.3424 261.83 81.9934 261.699 80.6002 262.82C79.2071 263.941 78.8212 265.654 79.6706 266.835C80.4719 267.924 81.7246 267.871 83.2053 266.695C84.6467 265.666 85.0018 264.34 84.1042 263.066ZM100.637 270.433C101.64 269.679 102.583 267.249 102.355 265.922C102.145 265.074 101.641 264.778 100.923 264.74C100.021 264.572 99.1755 264.736 98.6759 265.786C98.0493 267.037 98.0533 268.382 98.3683 269.655C98.4994 270.797 99.6732 271.039 100.637 270.433ZM128.922 274.451C129.448 274.12 129.886 273.845 130.188 273.532C131.279 272.723 132.05 271.748 131.862 270.274C131.626 268.707 130.229 268.483 129.231 268.131C127.96 267.705 126.9 268.126 126.05 269.396C125.796 269.801 125.542 270.206 125.424 270.648C124.893 272.084 124.188 273.631 125.532 274.868C126.701 276.215 127.862 274.873 128.922 274.451ZM162.781 271.533C162.61 270.537 161.669 270.517 160.863 270.534C159.658 270.679 158.038 270.473 157.595 271.854C156.907 273.88 158.68 274.602 160.025 275.839C161.913 274.774 163.17 273.616 162.781 271.533ZM190.243 275.088C188.079 274.734 188.079 274.734 187.728 277.405C189.117 277.39 189.752 276.377 190.243 275.088ZM219.116 275.551C219.182 273.672 218.35 272.97 216.62 273.445C216.397 273.463 216.221 273.574 215.959 273.739C215.17 274.235 214.381 274.731 213.593 275.227C213.593 275.227 213.593 275.227 213.545 275.135C213.019 275.465 212.581 275.741 212.055 276.071C211.052 276.825 209.729 277.412 210.237 279.053C210.6 280.417 212.895 281.914 214.099 281.769C216.684 281.369 219.124 278.241 219.116 275.551ZM250.464 276.295C250.67 275.798 250.565 275.374 250.42 275.097C249.081 272.754 245.174 271.291 243.015 272.282C241.954 272.703 241.262 273.384 241.082 274.6C240.854 275.723 241.59 276.241 242.374 276.85C243.709 277.848 245.172 278.643 246.929 278.886C248.054 279.036 250.061 277.529 250.464 276.295ZM308.28 260.636C310.322 260.088 311.347 258.708 312.14 257.106C312.64 256.057 312.916 255.025 312.123 254.176C311.235 253.143 310.1 252.753 308.865 253.285C307.717 253.762 306.986 254.59 306.99 255.935C306.915 257.575 307.063 259.197 308.28 260.636ZM388.591 233.893C389.087 231.498 389.057 229.434 388.444 227.369C387.985 225.82 387.565 224.124 385.721 223.936C384.372 223.805 381.826 226.508 381.48 228.074C381.063 230.174 382.044 232.498 383.865 233.312C385.319 233.868 386.774 234.423 388.591 233.893ZM358.011 244.427C360.485 247.159 363.372 246.446 364.582 242.745C364.985 241.511 365.016 241.124 364.242 238.304C362.047 238.336 360.15 239.161 358.446 240.356C356.878 241.587 356.746 242.895 358.011 244.427ZM340.919 250.032C341.603 249.112 341.655 248.099 341.174 247.176C340.175 246.824 339.706 247.487 339.557 248.316C339.242 249.494 339.754 250.03 340.919 250.032ZM280.491 267.823C282.139 263.846 281.518 261.542 278.969 260.449C277.922 260.005 277.029 260.077 276.065 260.683C274.663 261.565 274.339 262.504 275.372 263.814C276.646 265.586 278.437 266.787 280.491 267.823Z" fill="white" fill-opacity="0.1"></path> <path d="M410.043 212.708C410.696 212.436 411.19 211.414 412.095 211.853C413.582 213.331 413.247 215.102 413.041 216.936C412.595 222.018 414.169 224.043 418.763 224.925C421.06 225.366 423.22 224.816 425.272 223.96C428.349 222.678 431.247 220.887 434.18 219.198C436.834 217.626 439.632 216.46 442.451 215.052C442.969 216.817 441.793 217.424 441.522 218.469C441.25 219.515 441.445 220.366 442.386 220.907C443.197 221.384 443.886 221.214 444.488 220.496C445.183 219.74 445.398 218.835 445.038 217.82C444.404 216.335 444.79 215.009 445.047 213.62C445.168 212.753 445.842 212.239 446.747 212.678C447.092 213.35 446.641 213.888 446.541 214.512C446.363 215.519 446.801 216.152 447.727 216.349C448.524 216.483 449.27 216.172 449.707 215.291C450.087 214.55 449.741 213.878 449.339 213.346C448.426 211.978 448.697 210.933 450.081 210.006C451.035 209.375 451.752 208.377 453.331 208.302C453.934 209.099 454.502 209.795 455.163 210.452C460.409 216.191 466.679 219.989 473.959 221.5C479.257 222.556 482.303 219.071 481.42 213.261C480.574 207.553 477.297 203.441 473.926 199.368C473.028 198.344 471.792 197.577 471.439 195.976C472.973 194.87 474.637 193.826 476.136 192.619C478.983 190.383 481.887 188.007 483.67 184.583C487.064 178.157 483.504 171.132 476.599 170.98C473.147 170.903 469.745 171.272 466.589 172.937C463.189 174.821 459.718 176.501 456.72 178.916C454.641 180.598 453.14 180.291 451 179.085C445.319 175.742 439.352 173.101 433.02 171.544C431.261 171.111 429.538 170.78 427.73 171.417C423.612 172.784 421.715 176.489 423.076 180.934C424.042 184.261 426.112 186.778 428.726 188.719C430.881 190.268 433.223 191.74 436.06 193.705C429.799 197.48 424.751 202.265 419.079 206.494C418.073 205.165 417.189 204.484 417.188 202.97C417.453 202.509 417.718 202.049 418.076 201.55C419.1 199.608 419.056 198.578 417.914 197.772C416.513 196.84 415.538 197.713 414.893 198.914C414.249 200.115 413.395 200.121 412.318 200.104C409.383 200.278 408.423 201.494 408.814 204.712C409.038 206.25 408.968 207.561 408.137 208.84C407.872 209.3 407.679 209.963 407.543 210.486C407.15 212.398 408.235 213.345 410.043 212.708ZM416.409 199.564L416.502 199.526L416.409 199.564C416.409 199.564 416.445 199.666 416.409 199.564C416.553 199.971 416.459 200.01 416.294 199.845C416.258 199.744 416.315 199.603 416.409 199.564ZM451.038 205.761C446.757 208.478 442.583 211.5 438.136 214.053C434.643 215.975 431.279 217.96 427.786 219.882C424.817 221.469 421.79 223.197 418.308 222.434C417.956 222.347 417.605 222.261 417.346 222.135C417.217 222.073 417.109 221.768 416.943 221.604C417.624 220.504 418.887 220.444 419.892 220.258C428.53 218.056 436.284 213.659 443.692 208.59C446.087 206.892 448.648 205.359 451.136 203.622C451.999 204.545 451.992 205.13 451.038 205.761ZM473.23 218.54C467.214 216.968 461.77 213.992 457.086 209.534C456.094 208.549 455.253 207.384 454.692 206.103C453.533 203.439 453.847 201.909 456.141 199.321C462.959 205.571 469.741 211.719 476.689 218.031C475.413 219.262 474.286 218.8 473.23 218.54ZM477.31 208.914C478.454 211.234 479.132 213.749 478.711 216.489C476.772 215.549 459.271 199.998 457.883 197.896C462.953 194.384 466.069 194.717 470.086 199.104C472.652 202.114 475.44 205.148 477.31 208.914ZM476.039 189.629C471.314 193.813 470.382 194.202 467.976 193.456C471.504 190.121 474.938 186.824 478.616 183.31C480.041 187.028 477.652 188.141 476.039 189.629ZM481.256 182.909C479.767 179.916 478.78 176.831 476.696 173.97C481.886 174.72 483.684 178.283 481.256 182.909ZM431.343 173.758C434.157 174.45 437.029 175.001 439.707 176.216C443.606 177.854 447.563 179.352 451.527 181.779C450.094 183.775 448.193 184.451 446.565 185.596C442.054 188.875 441.925 188.812 437.321 185.486C434.318 183.358 431.352 181.331 428.349 179.202C427.207 178.396 426.101 177.691 425.317 176.386C426.793 173.906 428.881 173.153 431.343 173.758ZM428.78 185.55C427.07 184.048 425.661 182.187 425.149 179.836C425.3 179.657 425.579 179.541 425.73 179.361C430.464 182.75 435.104 186.177 439.931 189.527C438.907 191.469 437.809 191.694 436.02 190.574C433.643 189.001 430.986 187.544 428.78 185.55ZM412.119 207.996C411.35 207.035 410.975 205.676 410.73 204.379C410.607 203.731 410.614 203.145 411.101 202.709C411.682 202.234 412.313 202.204 412.996 202.619C414.231 203.386 415.036 204.449 415.784 205.653C418.027 209.263 419.305 209.547 422.51 206.812C433.043 197.876 444.36 190.245 455.475 182.348C459.312 179.584 463.659 177.655 467.862 175.32C468.479 174.947 469.075 174.815 469.727 174.543C473.996 172.997 477.552 175.478 478.296 180.296C478.434 181.288 478.112 181.888 477.474 182.504C473.946 185.839 470.383 189.073 466.618 192.04C465.944 192.554 465.255 192.725 464.437 192.833C459.256 193.011 454.945 195.041 452.324 200.33C451.887 201.211 451.12 201.764 450.316 202.215C444.091 206.092 437.974 210.274 431.547 213.885C426.634 216.632 421.109 217.653 414.831 219.57C416.246 214.202 414.592 211.045 412.119 207.996Z" fill="white" fill-opacity="0.1"></path> <path d="M471.512 183.697C473.656 182.804 474.873 180.199 474.153 178.168C473.469 176.239 471.344 175.377 469.479 176.154C467.464 177.111 466.605 179.217 467.304 181.489C467.967 183.66 469.647 184.475 471.512 183.697ZM469.883 178.2C471.225 177.757 472.373 177.978 472.733 178.993C473.093 180.009 472.334 181.49 471.029 182.034C469.91 182.501 469.171 182.226 468.703 180.906C468.4 179.751 468.542 178.643 469.883 178.2Z" fill="white" fill-opacity="0.1"></path> <path d="M461.021 189.476C462.606 188.815 463.335 186.647 462.63 184.96C461.961 183.375 460.281 182.56 458.789 183.182C457.147 183.983 456.138 186.268 456.714 187.892C457.253 189.415 459.436 190.136 461.021 189.476ZM459.344 185.048C460.183 184.698 460.829 185.012 461.153 185.925C461.384 186.878 460.968 187.517 460.129 187.867C459.404 187.936 458.644 187.903 458.377 186.849C458.089 186.037 458.505 185.398 459.344 185.048Z" fill="white" fill-opacity="0.1"></path> <path d="M451.415 194.42C453.186 193.682 453.988 191.716 453.376 189.991C452.779 188.608 451.006 187.833 449.736 188.478C448.467 189.124 447.752 191.635 448.421 193.221C448.925 194.642 450.016 195.003 451.415 194.42ZM450.736 190.392C451.331 190.26 451.791 190.651 451.82 191.338C451.807 192.509 451.026 192.718 449.892 192.841C449.646 191.545 449.638 190.616 450.736 190.392Z" fill="white" fill-opacity="0.1"></path> <path d="M443.395 200.214C444.98 199.553 445.703 197.97 445.184 196.205C444.738 194.643 443.704 194.142 442.362 194.585C440.741 195.144 439.717 197.085 440.236 198.85C440.647 200.311 441.81 200.875 443.395 200.214ZM442.358 196.684C442.731 196.529 443.233 196.436 443.449 197.045C443.701 197.756 443.436 198.216 442.912 198.551C442.296 198.924 441.815 198.775 441.563 198.064C441.44 197.416 441.798 196.917 442.358 196.684Z" fill="white" fill-opacity="0.1"></path> <path d="M435.562 205.93C437.24 205.23 437.812 203.827 437.272 202.304C436.697 200.68 435.605 200.319 434.056 201.081C432.6 201.804 431.971 203.348 432.604 204.832C433.072 206.152 434.199 206.614 435.562 205.93ZM434.388 202.923C434.819 202.628 435.228 202.574 435.594 203.004C436.126 203.598 435.545 204.073 435.337 204.392C434.814 204.727 434.369 204.679 434.096 204.21C433.88 203.601 434.051 203.18 434.388 202.923Z" fill="white" fill-opacity="0.1"></path> <path d="M426.946 211.856C428.323 211.515 429.082 210.034 428.636 208.472C428.261 207.114 427.414 206.535 426.223 206.798C424.881 207.241 424.008 209.003 424.383 210.361C424.757 211.72 425.698 212.26 426.946 211.856ZM426.254 208.999C426.476 209.023 426.699 209.047 426.828 209.109C426.807 209.351 426.786 209.593 426.728 209.733C426.635 209.772 426.413 209.748 426.19 209.725C426.305 209.444 426.233 209.241 426.254 208.999Z" fill="white" fill-opacity="0.1"></path> </svg> 