<?xml version="1.0" encoding="UTF-8"?> <svg xmlns="http://www.w3.org/2000/svg" width="98" height="80" viewBox="0 0 98 80" fill="none"> <path d="M86.6719 55.7159C87.3572 53.0718 86.9165 50.3127 87.6246 47.9081C86.9171 47.5037 86.5518 47.884 86.2169 48.1155C84.1243 49.5626 82.275 51.2244 80.7225 53.1916C79.6494 54.572 78.5766 54.5479 77.3594 53.4747C76.1955 52.4923 75.0848 51.6007 73.8067 50.825C72.3917 50.0162 71.0985 48.6126 69.1126 48.8369C69.3558 50.456 70.2153 51.5212 70.7705 52.6692C71.3789 53.9081 72.0406 55.2378 72.649 56.4766C74.7101 60.7962 74.6491 61.0936 71.392 64.3673C70.6614 65.1278 69.7711 65.6158 68.9873 66.2855C68.4545 66.7816 67.5415 67.03 67.4347 68.2528C68.0813 68.9546 68.7737 68.7311 69.4357 68.6563C71.064 68.424 72.6695 67.952 74.351 67.8105C77.0826 67.4535 77.326 67.6682 78.7331 70.2697C79.448 71.6902 80.1857 73.3504 81.669 74.8778C82.6738 72.7787 83.4502 71.0929 83.6256 69.1843C83.8315 67.127 84.836 66.4324 86.6317 66.0843C88.8382 65.835 91.1589 65.3792 93.4418 64.0559C91.6769 62.8508 90.239 61.8025 88.7175 60.812C86.2983 59.2934 85.9256 58.6575 86.6719 55.7159Z" fill="#FF457F"></path> <path d="M84.9541 17.3951C85.4443 15.5036 85.1291 13.5299 85.6356 11.8099C85.1295 11.5206 84.8682 11.7926 84.6287 11.9583C83.1317 12.9934 81.8089 14.1821 80.6983 15.5894C79.9306 16.5768 79.1632 16.5596 78.2925 15.7918C77.46 15.0891 76.6655 14.4514 75.7512 13.8964C74.739 13.3179 73.8139 12.3138 72.3933 12.4743C72.5673 13.6325 73.1821 14.3945 73.5793 15.2157C74.0145 16.1019 74.4878 17.0531 74.9231 17.9393C76.3974 21.0291 76.3538 21.2419 74.0238 23.5837C73.5012 24.1277 72.8643 24.4768 72.3036 24.9559C71.9226 25.3107 71.2694 25.4884 71.193 26.3631C71.6556 26.8651 72.1509 26.7053 72.6244 26.6518C73.7892 26.4856 74.9377 26.148 76.1405 26.0467C78.0945 25.7914 78.2687 25.9449 79.2752 27.8059C79.7866 28.822 80.3143 30.0096 81.3754 31.1022C82.0941 29.6007 82.6495 28.3947 82.775 27.0295C82.9223 25.5578 83.6408 25.0609 84.9253 24.8119C86.5037 24.6336 88.1638 24.3075 89.7969 23.3609C88.5343 22.4989 87.5058 21.749 86.4174 21.0405C84.6869 19.9542 84.4203 19.4993 84.9541 17.3951Z" fill="#FF457F"></path> <path d="M39.4557 20.8271C38.8347 16.4733 36.5003 12.7663 36.0594 8.74564C34.7791 8.66739 34.4793 9.48645 34.1327 10.0665C31.9664 13.6916 30.2869 17.4538 29.2276 21.4472C28.508 24.2375 26.9279 24.9783 24.4941 24.2928C22.1936 23.7012 20.0265 23.2038 17.6861 22.9963C15.1256 22.8398 12.3783 21.7271 9.61822 23.4909C10.9655 25.6774 12.8727 26.6099 14.3865 27.8834C16.0337 29.2509 17.8143 30.7125 19.4615 32.08C25.1167 36.8917 25.2102 37.3698 22.4645 44.5023C21.8648 46.1405 20.8649 47.4965 20.1318 49.0406C19.6586 50.1497 18.4786 51.1726 19.0724 53.034C20.4461 53.5903 21.3194 52.7633 22.2394 52.1754C24.4728 50.6586 26.5261 48.8087 28.8928 47.386C32.6596 44.8893 33.1463 45.0264 36.7941 47.8045C38.7081 49.3601 40.8021 51.2488 43.9029 52.4045C44.0821 48.615 44.1815 45.5936 43.2674 42.682C42.3066 39.5313 43.3464 37.7913 45.7531 35.9845C48.8199 34.0247 51.9266 31.681 54.4462 28.0989C51.1323 27.6172 48.3917 27.1276 45.5645 26.7831C41.1038 26.3172 40.1701 25.6589 39.4557 20.8271Z" fill="#FF457F"></path> </svg> 