<?xml version="1.0" encoding="UTF-8"?> <svg xmlns="http://www.w3.org/2000/svg" width="90" height="104" viewBox="0 0 90 104" fill="none"> <g clip-path="url(#clip0)"> <path d="M37.5 38.8C38.8 42.1 42.2 44.3 43.1 48.1C41.6 50.4 39.7 52.6 38.5 55.7C40.7 55.4 42.6 55.5 44.3 54.9C47 54 47.8 54.3 49.5 56.9C50.7 58.7 52 60.6 54.2 62C54.4 59.6 54.6 57.6 54.8 55.7C55.1 52.8 55.4 52.3 58.4 51.7C61.2 51.1 63.5 49.4 66.6 48.9C65.3 47.4 63.8 47.1 62.6 46.4C61.7 45.8 60.6 45.6 59.5 45.2C55.5 43.9 55.5 43.9 56.2 39.6C56.6 36.9 56.9 34.2 56.2 31.5C55.1 31.6 54.9 32.3 54.6 32.8C52.9 35.2 51.3 37.5 49.7 39.9C48.8 41.3 47.8 41.7 46.1 41.3C43.9 40.7 41.9 40 40 38.7C39.2 38.3 38.4 37.6 37.5 38.8Z" fill="#FF457F"></path> <path d="M61.8 101.5C62 102.4 62.3 103.4 63.4 103.3C64.7 103.1 64.3 102 64.2 101.2C64.2 100.9 64.1 100.6 64 100.2C62.8 95.0001 61.6 89.8001 60.4 84.7001C60 82.9001 59.1 81.2001 57.7 79.6001C56.6 80.4001 56.8 81.1001 57.1 81.9001C58.1 84.3001 58.5 86.8001 59 89.3001C59.9 93.3001 60.9 97.4001 61.8 101.5Z" fill="#FF457F"></path> <path d="M38 74.1001C36.9 74.2001 36.7 74.7001 36.6 75.1001C34.8 79.5001 33 83.9001 30.4 88.0001C29.6 89.3001 29 90.8001 28.3 92.2001C27.9 93.0001 27.9 93.7001 29.3 94.2001C32.6 87.7001 36.7 81.7001 38 74.1001Z" fill="#FF457F"></path> <path d="M20.9 49.6001C14.7 50.0001 8.7 51.8001 2.5 52.2001C1.5 52.3001 0.3 52.6001 0 54.4001C7.6 53.8001 14.7 52.1001 21.9 50.6001C21.9 50.3001 21.8 50.0001 21.8 49.7001C21.5 49.7001 21.2 49.6001 20.9 49.6001Z" fill="#FF457F"></path> <path d="M13 25.7C17.8 27.9 23.3 28.3 28.4 30.9C28.3 28.7 27.1 28.2 25.8 27.7C21.9 26.3 18.1 24.9 14 24.2C13.4 24.1 12.9 24.2 12.7 24.8C12.7 25.2 12.7 25.6 13 25.7Z" fill="#FF457F"></path> <path d="M41.5 21.6999C41.4 17.6999 35.2 9.9999 31.9 8.8999C31.6 9.2999 31.4 9.7999 31.6 10.0999C35 13.9999 38.3 17.8999 41.5 21.6999Z" fill="#FF457F"></path> <path d="M54.6 16.9C55 15 53.2 2.8 52 0C50.2 5.7 52.4 10.2 53.3 14.9C53.4 15.8 53.5 16.7 54.6 16.9Z" fill="#FF457F"></path> <path d="M9.89999 74.7001C10.1 75.1001 10.3 75.5001 10.5 75.9001C13.5 75.0001 15.5 72.5001 18 70.8001C20.6 69.1001 23 67.1001 25.5 65.3001C25.3 65.1001 25.2 64.8001 25 64.6001C19.4 67.1001 14.7 71.1001 9.89999 74.7001Z" fill="#FF457F"></path> <path d="M83.4 76.2C82.5 72.2 75.4 65.8 71.5 66.1C75.4 68.8 78.4 72.3 81.5 75.8C82 76.4 82.6 76.9 83.4 76.2Z" fill="#FF457F"></path> <path d="M48.1 82.8999C47.3 87.1999 45.7 91.1999 44.7 95.2999C44.6 95.8999 44.8 96.3999 45.9 96.4999C47.2 92.0999 49.6 87.8999 48.1 82.8999Z" fill="#FF457F"></path> <path d="M75.3 14.6C76.5 12.7 78.9 11.3 78.3 8.5C75 12 72 15.6 70.3 20C70.6 20.2 70.9 20.3 71.2 20.5C72.5 18.6 74 16.7 75.3 14.6Z" fill="#FF457F"></path> <path d="M27.7 72.8C25.2 76.4 21.3 78.7 19 83.4C22.5 82.1 27.4 75.9 27.7 72.8Z" fill="#FF457F"></path> <path d="M75 43.3999C79.6 44.0999 82.7 40.7999 86.8 39.8999C86.1 38.2999 84.9 38.2999 83.9 38.7999C81 40.2999 78.1 41.9999 75 43.3999Z" fill="#FF457F"></path> <path d="M20.5 37.4C18.5 36.2 16.2 36.5 14.2 35.5C12.3 34.5 10.4 32.8 7.2 33.8C11.8 36.2 15.6 38.8 20.5 37.4Z" fill="#FF457F"></path> <path d="M74.7 92.2C72.7 87.9 71 84.1 69.3 80.3C68.9 84.8 71.6 90.6 74.7 92.2Z" fill="#FF457F"></path> <path d="M30.5 22.0001C31.1 22.6001 31.6 23.5001 33.3 22.9001C32 21.2001 30.9 19.7001 29.6 18.3001C28 16.6001 26 16.1001 23.4 17.2001C27.2 18.4001 27.2 18.4001 30.5 22.0001Z" fill="#FF457F"></path> <path d="M78.4 56.1C80.4 55.9 82.3 55.7 84.3 55.6C86.1 55.5 88 57 89.9 55.2C85.6 53.2 81.2 53.4 78.4 56.1Z" fill="#FF457F"></path> <path d="M84 20.1001C81.9 21.9001 80.2 24.6001 79.2 27.8001C82.2 25.8001 84.2 22.4001 84 20.1001Z" fill="#FF457F"></path> <path d="M16.5 58C13.1 58.4 9.9 58.9 7 60.6C10.1 61.3 15 59.8 16.5 58Z" fill="#FF457F"></path> <path d="M68.3 2.19995C67.1 4.09995 66.2 6.09995 66.6 8.49995C67.7 6.49995 69.1 4.59995 68.3 2.19995Z" fill="#FF457F"></path> </g> <defs> <clipPath id="clip0"> <rect width="89.9" height="103.3" fill="white"></rect> </clipPath> </defs> </svg> 